<svg enable-background="new 0 0 800 328" viewBox="0 0 800 328" xmlns="http://www.w3.org/2000/svg"><path d="m151.7 32.3h-1.6v4.3h-1.5v-10.5h4c2 0 3.3 1.4 3.3 3.2 0 1.5-1 2.7-2.6 3l2.5 4.5h-1.7zm.7-1.3c1.2 0 2-.7 2-1.8s-.8-1.8-2-1.8h-2.2v3.6zm12.1 3.6c-.4 1.3-1.6 2.3-3.2 2.3-1.9 0-3.6-1.4-3.6-3.9 0-2.3 1.6-3.8 3.5-3.8 2.2 0 3.5 1.5 3.5 3.8v.5h-5.4c0 1.3 1 2.2 2.2 2.2s1.8-.6 2-1.5zm-1.4-2.3c0-1-.7-1.8-2-1.8-1.2 0-1.9.9-2 1.8zm4 4.4v-10.9h1.4v10.9zm10.9-2.1c-.4 1.3-1.6 2.3-3.2 2.3-1.9 0-3.6-1.4-3.6-3.9 0-2.3 1.6-3.8 3.5-3.8 2.2 0 3.5 1.5 3.5 3.8v.5h-5.4c0 1.3 1 2.2 2.2 2.2s1.8-.6 2-1.5zm-1.5-2.3c0-1-.7-1.8-2-1.8-1.2 0-1.9.9-2 1.8zm5.8.3 2-.3c.4-.1.6-.3.6-.5 0-.7-.5-1.3-1.6-1.3-1 0-1.5.6-1.6 1.5l-1.3-.3c.2-1.4 1.4-2.3 3-2.3 2.2 0 3 1.2 3 2.6v3.6c0 .6.1 1 .1 1.2h-1.4c0-.2-.1-.5-.1-1-.3.5-1 1.2-2.3 1.2-1.5 0-2.4-1-2.4-2.2-.2-1.3.7-2.1 2-2.2zm2.5 1v-.3l-2.2.3c-.6.1-1 .4-1 1.1 0 .5.5 1 1.2 1 1.1 0 2-.5 2-2.1zm4.9.8c.1.8.7 1.3 1.7 1.3.8 0 1.2-.4 1.2-1 0-.4-.3-.8-.9-.9l-1.2-.3c-1.1-.2-1.8-1-1.8-2 0-1.2 1.2-2.3 2.6-2.3 2 0 2.6 1.3 2.7 1.9l-1.2.5c-.1-.4-.4-1.2-1.5-1.2-.7 0-1.2.5-1.2 1 0 .4.3.8.8.9l1.2.3c1.3.3 2 1.1 2 2.1s-.9 2.2-2.6 2.2c-2 0-2.8-1.3-2.9-2.1zm13.2.2c-.4 1.3-1.6 2.3-3.2 2.3-1.9 0-3.6-1.4-3.6-3.9 0-2.3 1.6-3.8 3.4-3.8 2.2 0 3.5 1.5 3.5 3.8v.5h-5.4c0 1.3 1 2.2 2.2 2.2s1.8-.6 2-1.5zm-1.4-2.3c0-1-.7-1.8-2-1.8-1.2 0-1.9.9-2 1.8z" fill="#404040"/><path d="m146.4 5.7h96.2v50h-96.2z" style="fill:#b18be8;stroke:#404040;stroke-width:4;stroke-linecap:round;stroke-linejoin:round;stroke-miterlimit:10"/><path d="m166.8 36.7v-10.6h3.7c2.7 0 5.1 1.8 5.1 5.3s-2.4 5.3-5.1 5.3zm3.6-1.3c2 0 3.6-1.3 3.6-4s-1.6-4-3.6-4h-2.2v8zm14-.8c-.4 1.3-1.6 2.3-3.2 2.3-1.9 0-3.6-1.4-3.6-3.9 0-2.3 1.6-3.8 3.4-3.8 2.2 0 3.5 1.5 3.5 3.8v.5h-5.5c0 1.3 1 2.2 2.2 2.2s1.8-.6 2-1.5zm-1.4-2.3c0-1-.7-1.8-2-1.8-1.2 0-1.9.9-2 1.8zm7.5 4.4h-1.4l-2.9-7.2h1.6l2.1 5.6 2.1-5.6h1.5zm10.7-2.1c-.4 1.3-1.6 2.3-3.2 2.3-1.9 0-3.6-1.4-3.6-3.9 0-2.3 1.6-3.8 3.4-3.8 2.2 0 3.5 1.5 3.5 3.8v.5h-5.4c0 1.3 1 2.2 2.2 2.2s1.8-.6 2-1.5zm-1.4-2.3c0-1-.7-1.8-2-1.8-1.2 0-1.9.9-2 1.8zm4 4.4v-10.9h1.4v10.9zm11.4-3.6c0 2.2-1.5 3.8-3.7 3.8s-3.7-1.6-3.7-3.8 1.5-3.8 3.7-3.8c2.1-.1 3.7 1.6 3.7 3.8zm-1.5 0c0-1.7-1-2.6-2.2-2.6s-2.2.9-2.2 2.6 1 2.6 2.2 2.6 2.2-.9 2.2-2.6zm4 6.4v-10h1.4v1.1c.4-.7 1.2-1.3 2.4-1.3 2.2 0 3.3 1.7 3.3 3.8s-1.2 3.8-3.4 3.8c-1.1 0-2-.5-2.3-1.2v3.8zm3.5-8.9c-1.3 0-2.1 1.1-2.1 2.5 0 1.5.9 2.5 2.1 2.5 1.3 0 2.1-1.1 2.1-2.5.1-1.5-.7-2.5-2.1-2.5z" fill="#404040"/><g stroke-width="4"><path d="m776.4 306.7h-596.4" fill="none" stroke="#404040" stroke-miterlimit="10"/><circle cx="485.4" cy="306.7" fill="#b18be8" r="15.8" stroke="#404040" stroke-miterlimit="10"/><circle cx="316" cy="306.7" fill="#b18be8" r="15.8" stroke="#404040" stroke-miterlimit="10"/><circle cx="776.4" cy="306.7" fill="#b18be8" r="15.8" stroke="#404040" stroke-miterlimit="10"/><path d="m70.9 306.7h-49.4" fill="none" stroke="#ccc" stroke-dasharray="0 14.1243" stroke-linecap="round" stroke-linejoin="round"/><path d="m761.4 245.2h-82.3" fill="none" stroke="#ccc" stroke-dasharray="0 14.9632" stroke-linecap="round" stroke-linejoin="round"/><path d="m85.1 275.9c0-17-13.8-30.7-30.8-30.7" fill="none" stroke="#404040" stroke-miterlimit="10"/><path d="m645.2 245.2h-605.8" fill="none" stroke="#404040" stroke-miterlimit="10"/><circle cx="23.6" cy="245.2" fill="#b3e3ff" r="15.8" stroke="#404040" stroke-miterlimit="10"/><circle cx="316" cy="245.2" fill="#b3e3ff" r="15.8" stroke="#404040" stroke-miterlimit="10"/><circle cx="645.2" cy="245.2" fill="#b3e3ff" r="15.8" stroke="#404040" stroke-miterlimit="10"/><path d="m49.2 139.7h42.5v37.5h-42.5z" fill="#b3e3ff" stroke="#404040" stroke-linecap="round" stroke-linejoin="round" stroke-miterlimit="10"/></g><path d="m62.7 162.9h-1.2l-2.5-6.3h1.4l1.8 4.8 1.8-4.8h1.3s-2.6 6.3-2.6 6.3zm4.7-7.2c.5-.8 1.4-1.4 2.6-1.4s2 .5 2.6 1.4c.6.8.8 1.9.8 3.1s-.2 2.2-.8 3.1c-.5.8-1.4 1.4-2.6 1.4s-2-.5-2.6-1.4c-.6-.8-.8-1.9-.8-3.1s.3-2.3.8-3.1zm1.3 5.8c.3.3.7.5 1.3.5s1-.2 1.3-.5c.5-.5.7-1.4.7-2.7s-.2-2.2-.7-2.7c-.3-.3-.7-.5-1.3-.5s-1 .2-1.3.5c-.5.5-.7 1.4-.7 2.7s.2 2.1.7 2.7zm7.2-.3c.5 0 .9.4.9.9s-.4.9-.9.9-.9-.4-.9-.9.4-.9.9-.9zm4 1.7v-5.9h-2v-.9c1.2 0 2-.7 2.2-1.6h1.1v8.4z" fill="#404040"/><path d="m70.5 211.3v-17.6m8.1 11.1-8.1 8.2-8.2-8.2" style="fill:none;stroke:#404040;stroke-width:4;stroke-linecap:round;stroke-linejoin:round;stroke-miterlimit:10"/><path d="m294.7 139.7h42.5v37.5h-42.5z" style="fill:#b3e3ff;stroke:#404040;stroke-width:4;stroke-linecap:round;stroke-linejoin:round;stroke-miterlimit:10"/><path d="m306.6 162.9h-1.2l-2.5-6.3h1.4l1.8 4.8 1.8-4.8h1.3zm4.7-7.2c.5-.8 1.4-1.4 2.6-1.4s2 .5 2.6 1.4c.6.8.8 1.9.8 3.1s-.2 2.2-.8 3.1c-.5.8-1.4 1.4-2.6 1.4s-2-.5-2.6-1.4c-.6-.8-.8-1.9-.8-3.1s.3-2.3.8-3.1zm1.3 5.8c.3.3.7.5 1.3.5s1-.2 1.3-.5c.5-.5.7-1.4.7-2.7s-.2-2.2-.7-2.7c-.3-.3-.7-.5-1.3-.5s-1 .2-1.3.5c-.5.5-.7 1.4-.7 2.7s.2 2.1.7 2.7zm7.2-.3c.5 0 .9.4.9.9s-.4.9-.9.9-.9-.4-.9-.9.4-.9.9-.9zm3.1-3.8v-.3c0-1.4 1.1-2.7 2.9-2.7s2.8 1.2 2.8 2.6c0 1.1-.6 2-1.6 2.6l-1.7 1.1c-.5.3-.9.7-1 1.2h4.3v1.2h-5.9c0-1.4.6-2.4 2-3.4l1.4-.9c.8-.5 1.2-1.1 1.2-1.8 0-.8-.5-1.5-1.6-1.5s-1.6.8-1.6 1.7v.4z" fill="#404040"/><path d="m316 211.3v-17.6m8.1 11.1-8.1 8.2-8.2-8.2" style="fill:none;stroke:#404040;stroke-width:4;stroke-linecap:round;stroke-linejoin:round;stroke-miterlimit:10"/><path d="m623.9 139.7h42.5v37.5h-42.5z" style="fill:#b3e3ff;stroke:#404040;stroke-width:4;stroke-linecap:round;stroke-linejoin:round;stroke-miterlimit:10"/><path d="m636.9 162.9h-1.2l-2.5-6.3h1.4l1.8 4.8 1.8-4.8h1.3zm5.7 0v-5.9h-2v-.9c1.2 0 2-.7 2.2-1.6h1.1v8.4zm4.5-1.7c.5 0 .9.4.9.9s-.4.9-.9.9-.9-.4-.9-.9.4-.9.9-.9zm3.7-5.5c.5-.8 1.4-1.4 2.6-1.4s2 .5 2.6 1.4c.6.8.8 1.9.8 3.1s-.2 2.2-.8 3.1c-.5.8-1.4 1.4-2.6 1.4s-2-.5-2.6-1.4c-.6-.8-.8-1.9-.8-3.1s.2-2.3.8-3.1zm1.2 5.8c.3.3.7.5 1.3.5s1-.2 1.3-.5c.5-.5.7-1.4.7-2.7s-.2-2.2-.7-2.7c-.3-.3-.7-.5-1.3-.5s-1 .2-1.3.5c-.5.5-.7 1.4-.7 2.7s.2 2.1.7 2.7z" fill="#404040"/><path d="m645.2 211.3v-17.6m8.1 11.1-8.1 8.2-8.2-8.2" style="fill:none;stroke:#404040;stroke-width:4;stroke-linecap:round;stroke-linejoin:round;stroke-miterlimit:10"/><path d="m85.1 275.9c0 17 13.8 30.8 30.8 30.8h95.7" fill="none" stroke="#404040" stroke-miterlimit="10" stroke-width="4"/><circle cx="195.7" cy="306.7" fill="#b18be8" r="15.7" stroke="#404040" stroke-miterlimit="10" stroke-width="4"/><circle cx="148.9" cy="306.7" fill="#b18be8" r="15.8" stroke="#404040" stroke-miterlimit="10" stroke-width="4"/><path d="m7 5.7h96.2v50h-96.2z" style="fill:#b3e3ff;stroke:#404040;stroke-width:4;stroke-linecap:round;stroke-linejoin:round;stroke-miterlimit:10"/><path d="m39.9 36.8v-10h2l2.4 7.1c.2.7.4 1.2.5 1.5.1-.4.3-.9.5-1.6l2.4-7h1.8v10h-1.3v-8.4l-2.9 8.4h-1.2l-2.9-8.5v8.5z" fill="#414141"/><path d="m56.9 35.9c-.5.4-.9.7-1.3.8-.4.2-.9.2-1.4.2-.8 0-1.4-.2-1.8-.6s-.6-.9-.6-1.5c0-.4.1-.7.2-1 .2-.3.4-.5.6-.7.3-.2.6-.3.9-.4.2-.1.6-.1 1.1-.2 1-.1 1.7-.3 2.2-.4 0-.2 0-.3 0-.3 0-.5-.1-.9-.3-1.1-.3-.3-.8-.4-1.4-.4s-1 .1-1.3.3-.5.6-.6 1.1l-1.2-.2c.1-.5.3-.9.5-1.2.3-.3.6-.6 1.1-.7.5-.2 1-.3 1.6-.3s1.1.1 1.5.2.7.3.9.6c.2.2.3.5.4.8 0 .2.1.6.1 1.1v1.6c0 1.1 0 1.9.1 2.2s.2.6.3.9h-1.3c-.2-.1-.3-.4-.3-.8zm-.1-2.7c-.4.2-1.1.3-2 .5-.5.1-.9.2-1.1.2s-.4.2-.5.4-.2.4-.2.6c0 .3.1.6.4.8.2.2.6.3 1.1.3s.9-.1 1.3-.3.6-.5.8-.9c.1-.3.2-.7.2-1.2z" fill="#414141"/><path d="m60.6 28.2v-1.4h1.2v1.4zm0 8.6v-7.3h1.2v7.3z" fill="#414141"/><path d="m64.4 36.8v-7.3h1.1v1c.5-.8 1.3-1.2 2.3-1.2.4 0 .8.1 1.2.2.4.2.6.4.8.6s.3.6.4.9c0 .2.1.6.1 1.2v4.5h-1.2v-4.4c0-.5 0-.9-.1-1.1s-.3-.4-.5-.6c-.2-.1-.5-.2-.9-.2-.5 0-1 .2-1.4.5s-.6 1-.6 1.9v4z" fill="#414141"/></svg>